<?xml version="1.0" encoding="utf-8"?>
<!-- Generator: Adobe Illustrator 15.0.2, SVG Export Plug-In . SVG Version: 6.00 Build 0)  -->
<!DOCTYPE svg PUBLIC "-//W3C//DTD SVG 1.0//EN" "http://www.w3.org/TR/2001/REC-SVG-20010904/DTD/svg10.dtd">
<svg version="1.0" id="Ebene_1" xmlns="http://www.w3.org/2000/svg" xmlns:xlink="http://www.w3.org/1999/xlink" x="0px" y="0px"
	 width="448px" height="448px" viewBox="0 0 448 448" enable-background="new 0 0 448 448" xml:space="preserve">
<path fill="#3E373C" d="M310.558,226.625c0,48.163-39.075,87.24-87.23,87.24c-48.2,0-87.261-39.077-87.261-87.24
	c0-48.2,39.061-87.248,87.261-87.248C271.482,139.377,310.558,178.425,310.558,226.625"/>
<g>
	<path fill="#FF7A00" d="M336.339,22.095l-29.46,55.239c-29.46-12.276-56.888-18.414-82.243-18.414
		c-43.387,0-81.841,14.117-115.387,42.349C75.684,129.503,58.92,163.68,58.92,203.767v125.875H0V7.365h58.92v68.74
		C96.552,25.375,151.79,0,224.636,0C265.545,0,302.774,7.365,336.339,22.095z"/>
</g>
<g>
	<path fill="#3E373C" d="M110.841,424.905l29.461-55.24c29.46,12.276,56.888,18.414,82.242,18.414
		c43.386,0,81.84-14.117,115.387-42.349c33.564-28.234,50.329-62.411,50.329-102.498V117.359h58.919v322.276h-58.919v-68.74
		C350.627,421.624,295.391,447,222.544,447C181.636,447,144.406,439.635,110.841,424.905z"/>
</g>
</svg>
