<?xml version="1.0" encoding="utf-8"?>
<!-- Generator: Adobe Illustrator 15.0.2, SVG Export Plug-In . SVG Version: 6.00 Build 0)  -->
<!DOCTYPE svg PUBLIC "-//W3C//DTD SVG 1.0//EN" "http://www.w3.org/TR/2001/REC-SVG-20010904/DTD/svg10.dtd">
<svg version="1.0" id="Ebene_1" xmlns="http://www.w3.org/2000/svg" xmlns:xlink="http://www.w3.org/1999/xlink" x="0px" y="0px"
	 width="48px" height="48px" viewBox="0 0 48 48" enable-background="new 0 0 48 48" xml:space="preserve">
<g>
	<path fill="#3E373C" d="M33.335,24.325c0,5.169-4.194,9.364-9.363,9.364c-5.174,0-9.367-4.195-9.367-9.364
		c0-5.174,4.193-9.364,9.367-9.364C29.141,14.961,33.335,19.151,33.335,24.325"/>
	<g>
		<path fill="#FF7A00" d="M36.103,2.372l-3.163,5.93c-3.161-1.318-6.105-1.977-8.827-1.977c-4.658,0-8.786,1.515-12.386,4.545
			c-3.603,3.03-5.402,6.699-5.402,11.003v13.51H0V0.791h6.324V8.17C10.364,2.724,16.293,0,24.113,0
			C28.503,0,32.5,0.791,36.103,2.372z"/>
	</g>
	<g>
		<path fill="#3E373C" d="M11.897,45.609l3.162-5.93c3.163,1.318,6.106,1.977,8.828,1.977c4.658,0,8.785-1.516,12.386-4.546
			c3.603-3.03,5.402-6.698,5.402-11.003v-13.51H48v34.592h-6.324v-7.378c-4.039,5.444-9.969,8.169-17.789,8.169
			C19.497,47.98,15.5,47.189,11.897,45.609z"/>
	</g>
</g>
</svg>
