<?xml version="1.0" encoding="utf-8"?>
<!-- Generator: Adobe Illustrator 15.0.2, SVG Export Plug-In . SVG Version: 6.00 Build 0)  -->
<!DOCTYPE svg PUBLIC "-//W3C//DTD SVG 1.0//EN" "http://www.w3.org/TR/2001/REC-SVG-20010904/DTD/svg10.dtd">
<svg version="1.0" id="Ebene_1" xmlns="http://www.w3.org/2000/svg" xmlns:xlink="http://www.w3.org/1999/xlink" x="0px" y="0px"
	 width="64px" height="48px" viewBox="0 0 64 48" enable-background="new 0 0 64 48" xml:space="preserve">
<g>
	<path fill="#3E373C" d="M33.335,24.326c0,5.17-4.194,9.364-9.363,9.364c-5.174,0-9.366-4.193-9.366-9.364
		c0-5.174,4.192-9.365,9.366-9.365C29.141,14.96,33.335,19.152,33.335,24.326"/>
	<g>
		<path fill="#FF7A00" d="M36.103,2.372L32.94,8.301c-3.163-1.317-6.106-1.976-8.828-1.976c-4.657,0-8.785,1.515-12.386,4.545
			c-3.603,3.031-5.402,6.699-5.402,11.002v13.511H0V0.791h6.325v7.378C10.364,2.724,16.293,0,24.112,0
			C28.504,0,32.5,0.791,36.103,2.372z"/>
	</g>
	<g>
		<path fill="#3E373C" d="M11.897,45.609l3.163-5.93c3.162,1.318,6.106,1.977,8.828,1.977c4.657,0,8.784-1.516,12.386-4.546
			c3.603-3.03,5.402-6.699,5.402-11.002V12.597H48v34.592h-6.324v-7.378c-4.039,5.445-9.969,8.169-17.788,8.169
			C19.497,47.98,15.5,47.189,11.897,45.609z"/>
	</g>
</g>
</svg>
